<svg xmlns="http://www.w3.org/2000/svg" style="display: none;"><symbol id="vk" viewBox="0 0 112.196 112.196"><title>vk</title><g> <circle id="XMLID_11_" style="fill:#4D76A1;" cx="56.098" cy="56.098" r="56.098"/> </g><path style="fill-rule:evenodd;clip-rule:evenodd;fill:#FFFFFF;" d="M53.979,80.702h4.403c0,0,1.33-0.146,2.009-0.878 c0.625-0.672,0.605-1.934,0.605-1.934s-0.086-5.908,2.656-6.778c2.703-0.857,6.174,5.71,9.853,8.235 c2.782,1.911,4.896,1.492,4.896,1.492l9.837-0.137c0,0,5.146-0.317,2.706-4.363c-0.2-0.331-1.421-2.993-7.314-8.463 c-6.168-5.725-5.342-4.799,2.088-14.702c4.525-6.031,6.334-9.713,5.769-11.29c-0.539-1.502-3.867-1.105-3.867-1.105l-11.076,0.069 c0,0-0.821-0.112-1.43,0.252c-0.595,0.357-0.978,1.189-0.978,1.189s-1.753,4.667-4.091,8.636c-4.932,8.375-6.904,8.817-7.71,8.297 c-1.875-1.212-1.407-4.869-1.407-7.467c0-8.116,1.231-11.5-2.397-12.376c-1.204-0.291-2.09-0.483-5.169-0.514 c-3.952-0.041-7.297,0.012-9.191,0.94c-1.26,0.617-2.232,1.992-1.64,2.071c0.732,0.098,2.39,0.447,3.269,1.644 c1.135,1.544,1.095,5.012,1.095,5.012s0.652,9.554-1.523,10.741c-1.493,0.814-3.541-0.848-7.938-8.446 c-2.253-3.892-3.954-8.194-3.954-8.194s-0.328-0.804-0.913-1.234c-0.71-0.521-1.702-0.687-1.702-0.687l-10.525,0.069 c0,0-1.58,0.044-2.16,0.731c-0.516,0.611-0.041,1.875-0.041,1.875s8.24,19.278,17.57,28.993 C44.264,81.287,53.979,80.702,53.979,80.702L53.979,80.702z"/></symbol><symbol id="github" viewBox="0 0 512 512"><title>github</title><path style="fill:#F2F2F2;" d="M512,256c0,127.969-93.895,234.005-216.555,252.98c-2.769,0.428-5.559,0.815-8.359,1.149 c-9.007,1.097-18.16,1.714-27.429,1.839C258.435,511.99,257.223,512,256,512s-2.435-0.01-3.657-0.031 c-9.268-0.125-18.422-0.742-27.429-1.839c-2.8-0.334-5.59-0.721-8.359-1.149C93.895,490.005,0,383.969,0,256 C0,114.615,114.615,0,256,0S512,114.615,512,256z"/><g> <path style="fill:#222123;" d="M512,256c0,9.644-0.533,19.163-1.578,28.536c-0.115,1.045-0.23,2.1-0.355,3.145 c-0.658,5.308-1.484,10.574-2.456,15.778c-0.188,1.034-0.387,2.058-0.596,3.072c-18.098,90.436-83.832,163.652-169.942,192.355 c-12.978,2.508-17.586-5.465-17.586-12.288c0-8.432,0.293-35.997,0.293-70.249c0-23.886-8.182-39.466-17.356-47.407 c44.335-4.932,90.425-19.122,108.711-71.471c0.366-1.024,0.711-2.069,1.045-3.124c1.024-3.187,1.933-6.51,2.748-9.979 c0.24-1.034,0.481-2.079,0.7-3.145c2.393-11.337,3.689-24.137,3.689-38.599c0-27.941-9.937-50.782-26.352-68.712 c2.664-6.447,11.431-32.486-2.508-67.751c0,0-21.462-6.875-70.332,26.248c-20.459-5.674-42.371-8.516-64.125-8.62 c-21.755,0.104-43.656,2.947-64.084,8.62c-48.912-33.123-70.416-26.248-70.416-26.248c-13.897,35.265-5.13,61.304-2.476,67.751 c-16.374,17.93-26.384,40.772-26.384,68.712c0,14.451,1.296,27.251,3.699,38.588c0.219,1.066,0.449,2.111,0.69,3.145 c0.815,3.469,1.735,6.802,2.759,9.989c0.334,1.055,0.69,2.1,1.045,3.124c18.275,52.255,64.24,66.644,108.45,71.67 c-7.325,6.395-13.96,17.69-16.259,34.241c-14.608,6.541-51.66,17.847-74.491-21.285c0,0-13.542-24.576-39.246-26.384 c0,0-24.984-0.324-1.745,15.559c0,0,16.771,7.879,28.421,37.46c0,0,15.026,45.693,86.246,30.208 c0.115,21.389,0.345,41.556,0.345,47.658c0,6.76-4.692,14.691-17.492,12.319C88.9,470.235,23.092,397.009,4.984,306.531v-0.01 c-0.209-1.014-0.408-2.038-0.585-3.062c-0.982-5.204-1.808-10.47-2.456-15.778c-0.136-1.045-0.251-2.09-0.366-3.145 C0.533,275.163,0,265.644,0,256C0,114.615,114.636,0,256,0C397.375,0,512,114.615,512,256z"/> <path style="fill:#222123;" d="M94.678,363.698c-1.849-0.878-3.856-0.512-4.409,0.794c-0.596,1.275,0.439,3.009,2.299,3.845 c1.829,0.878,3.824,0.502,4.389-0.773C97.604,366.289,96.538,364.534,94.678,363.698z"/> <path style="fill:#222123;" d="M106.6,373.802c-1.682-1.776-3.992-2.309-5.245-1.181c-1.243,1.149-0.93,3.542,0.742,5.319 c1.62,1.787,4.012,2.32,5.235,1.191C108.607,377.981,108.272,375.609,106.6,373.802z"/> <path style="fill:#222123;" d="M117.457,387.709c-1.609-2.257-4.138-3.239-5.716-2.152c-1.609,1.097-1.609,3.824-0.042,6.102 c1.588,2.278,4.148,3.302,5.726,2.205C119.024,392.756,119.024,390.019,117.457,387.709z"/> <path style="fill:#222123;" d="M129.849,401.575c-2.205-2.1-5.214-2.529-6.635-0.982c-1.4,1.546-0.784,4.483,1.452,6.541 c2.194,2.111,5.183,2.529,6.583,0.982C132.744,406.58,132.065,403.634,129.849,401.575z"/> <path style="fill:#222123;" d="M146.139,411.136c-2.926-0.909-5.82,0.042-6.416,2.058c-0.585,2.027,1.306,4.378,4.2,5.256 c2.905,0.846,5.778-0.063,6.405-2.069C150.925,414.344,149.034,412.014,146.139,411.136z"/> <path style="fill:#222123;" d="M165.742,414.187c-3.062,0.052-5.465,1.776-5.465,3.908c0.031,2.079,2.508,3.793,5.569,3.72 c3.041-0.031,5.507-1.787,5.433-3.897C171.28,415.828,168.782,414.124,165.742,414.187z"/> <path style="fill:#222123;" d="M190.777,414.605c-0.387-2.1-3.103-3.333-6.123-2.811c-2.978,0.543-5.13,2.664-4.754,4.775 c0.376,2.038,3.124,3.312,6.102,2.769C189.022,418.774,191.133,416.664,190.777,414.605z"/> </g></symbol><symbol id="instagram" viewBox="0 0 512 512"><title>instagram</title><circle style="fill:#6C27B3;" cx="256" cy="256" r="256"/><path style="fill:#501A96;" d="M374.71,132.922c-30.587,3.872-62.479,3.737-94.575,0.681 c-44.822-3.448-110.33-24.135-134.465,17.239c-38.772,66.236-19.649,151.035-10.614,226.078l134.737,134.708 c130.388-6.923,234.886-111.407,241.831-241.79L374.71,132.922z"/><g> <path style="fill:#FFFFFF;" d="M315.227,109.468H196.772c-48.14,0-87.304,39.164-87.304,87.304v118.455 c0,48.138,39.164,87.305,87.305,87.305h118.455c48.138,0,87.305-39.165,87.305-87.305V196.772 C402.532,148.632,363.367,109.468,315.227,109.468L315.227,109.468z M373.05,315.228c0,31.934-25.888,57.822-57.822,57.822H196.773 c-31.934,0-57.822-25.888-57.822-57.822V196.773c0-31.934,25.888-57.823,57.822-57.823h118.455 c31.934,0,57.822,25.89,57.822,57.823V315.228z"/> <path style="fill:#FFFFFF;" d="M256,180.202c-41.794,0-75.798,34.004-75.798,75.798c0,41.791,34.004,75.795,75.798,75.795 s75.795-34.001,75.795-75.795S297.794,180.202,256,180.202L256,180.202z M256,302.313c-25.579,0-46.316-20.733-46.316-46.313 s20.737-46.316,46.316-46.316s46.313,20.735,46.313,46.316C302.313,281.579,281.579,302.313,256,302.313L256,302.313z"/> </g><g> <path style="fill:#D1D1D1;" d="M350.103,180.774c0,10.03-8.132,18.163-18.163,18.163c-10.03,0-18.163-8.133-18.163-18.163 c0-10.031,8.133-18.163,18.163-18.163C341.973,162.611,350.103,170.741,350.103,180.774L350.103,180.774z"/> <path style="fill:#D1D1D1;" d="M315.228,109.468h-59.802v29.482h59.802c31.934,0,57.822,25.89,57.822,57.823v118.455 c0,31.934-25.888,57.822-57.822,57.822h-59.802v29.482h59.802c48.138,0,87.304-39.165,87.304-87.305V196.772 C402.532,148.632,363.367,109.468,315.228,109.468z"/> <path style="fill:#D1D1D1;" d="M256,180.202c-0.193,0-0.381,0.014-0.574,0.014v29.482c0.191-0.002,0.381-0.014,0.574-0.014 c25.579,0,46.313,20.735,46.313,46.316c0,25.579-20.733,46.313-46.313,46.313c-0.193,0-0.383-0.012-0.574-0.014v29.482 c0.193,0.002,0.381,0.014,0.574,0.014c41.794,0,75.795-34.002,75.795-75.795C331.795,214.206,297.794,180.202,256,180.202z"/> </g></symbol></svg>